<?xml version="1.0" standalone="no"?>
<!DOCTYPE svg PUBLIC "-//W3C//DTD SVG 20010904//EN"
 "http://www.w3.org/TR/2001/REC-SVG-20010904/DTD/svg10.dtd">
<svg version="1.0" xmlns="http://www.w3.org/2000/svg"
 width="384.000000pt" height="384.000000pt" viewBox="0 0 384.000000 384.000000"
 preserveAspectRatio="xMidYMid meet">
<metadata>
Created by potrace 1.14, written by Peter Selinger 2001-2017
</metadata>
<g transform="translate(0.000000,384.000000) scale(0.100000,-0.100000)"
fill="#000000" stroke="none">
<path d="M1080 3105 c0 -10 -10 -15 -29 -15 -49 0 -91 -12 -91 -26 0 -9 -11
-14 -30 -14 -20 0 -30 -5 -30 -15 0 -8 -11 -17 -25 -21 -14 -3 -25 -12 -25
-20 0 -8 -7 -14 -15 -14 -8 0 -15 -9 -15 -20 0 -11 -4 -20 -10 -20 -5 0 -12
-16 -16 -35 -3 -19 -10 -35 -15 -35 -5 0 -9 -31 -9 -70 0 -40 4 -70 10 -70 6
0 10 -14 10 -30 0 -18 6 -33 15 -36 8 -4 15 -13 15 -20 0 -8 7 -17 15 -20 8
-4 15 -12 15 -20 0 -8 7 -14 15 -14 8 0 15 -6 15 -14 0 -8 14 -17 30 -21 17
-4 30 -13 30 -21 0 -10 12 -14 40 -14 28 0 40 -4 40 -14 0 -10 19 -16 60 -21
41 -5 60 -11 60 -21 0 -11 17 -14 70 -14 54 0 70 -3 70 -14 0 -8 14 -17 30
-21 17 -4 30 -13 30 -21 0 -8 7 -14 15 -14 8 0 15 -7 15 -15 0 -8 7 -15 15
-15 8 0 15 -9 15 -20 0 -11 4 -20 9 -20 5 0 11 9 14 20 3 11 12 20 21 20 9 0
16 7 16 15 0 8 7 15 15 15 8 0 15 6 15 14 0 8 7 16 15 20 8 3 15 12 15 21 0 8
7 15 15 15 8 0 15 7 15 15 0 8 11 17 25 21 14 3 25 12 25 20 0 8 7 14 15 14 8
0 15 7 15 15 0 8 -7 15 -15 15 -8 0 -15 9 -15 20 0 11 -7 20 -15 20 -8 0 -15
7 -15 15 0 8 -7 15 -15 15 -8 0 -15 9 -15 20 0 17 -7 20 -44 20 -28 0 -51 6
-61 17 -10 10 -39 18 -71 21 -34 3 -54 9 -54 17 0 9 -22 14 -66 17 -49 3 -69
9 -76 21 -5 11 -21 17 -42 17 -26 0 -35 5 -40 23 -11 41 -7 77 9 77 8 0 15 9
15 20 0 18 7 20 85 20 70 0 85 -3 85 -15 0 -9 7 -18 15 -21 8 -4 15 -12 15
-20 0 -8 6 -14 14 -14 8 0 17 -15 20 -35 l7 -35 99 0 c82 0 100 3 100 15 0 12
13 15 56 15 l57 0 -7 33 c-4 17 -11 34 -16 35 -6 2 -10 19 -10 38 0 24 -5 34
-15 34 -8 0 -15 9 -15 20 0 11 -7 20 -15 20 -8 0 -15 6 -15 14 0 8 -7 16 -15
20 -8 3 -15 12 -15 21 0 10 -10 15 -30 15 -19 0 -30 5 -30 14 0 10 -17 17 -55
21 -37 5 -55 12 -55 21 0 11 -28 14 -145 14 -122 0 -145 -2 -145 -15z"/>
<path d="M1802 2826 c2 -107 5 -196 8 -199 12 -10 80 6 80 19 0 10 15 14 55
14 41 0 55 4 55 14 0 10 19 16 60 21 41 5 60 11 60 21 0 10 13 14 43 14 46 0
79 15 61 28 -6 4 -14 38 -17 77 -3 38 -10 71 -16 73 -6 2 -11 25 -11 52 0 60
3 60 -213 60 l-169 0 4 -194z"/>
<path d="M2433 3003 c-4 -10 -10 -20 -14 -23 -4 -3 -8 -43 -10 -90 l-4 -85 53
0 c34 1 56 6 62 15 5 7 32 15 64 18 39 3 56 9 56 18 0 10 15 14 53 14 59 0 80
16 92 69 4 17 11 31 16 31 5 0 9 8 9 19 0 27 -25 31 -208 31 -146 0 -163 -2
-169 -17z"/>
<path d="M2470 2715 c0 -11 -11 -15 -37 -15 -65 0 -83 -9 -83 -40 0 -16 -7
-30 -15 -34 -11 -4 -15 -20 -15 -56 0 -38 -4 -50 -15 -50 -10 0 -15 11 -15 35
0 19 -4 35 -10 35 -5 0 -12 16 -16 35 -5 28 -11 35 -30 35 -15 0 -24 -6 -24
-15 0 -9 -9 -15 -22 -15 -39 0 -68 -12 -68 -26 0 -9 -11 -14 -30 -14 -29 0
-30 -1 -30 -50 0 -38 4 -50 15 -50 12 0 15 -13 15 -59 0 -33 5 -61 11 -63 5
-2 13 -24 16 -48 3 -25 11 -48 16 -52 6 -3 13 -35 15 -70 3 -35 9 -66 14 -69
5 -3 12 -26 15 -50 3 -24 12 -48 19 -52 8 -4 14 -15 14 -22 0 -12 19 -15 100
-15 l100 0 0 39 c0 22 5 41 11 43 6 2 13 25 16 51 3 26 9 47 13 47 4 0 10 21
13 46 2 26 9 49 14 53 6 3 13 28 15 55 3 27 10 51 16 55 5 3 11 35 14 70 3 37
10 67 16 69 7 2 12 12 12 23 0 10 7 19 15 19 13 0 15 -38 15 -285 l0 -285 105
0 c87 0 105 3 105 15 0 8 5 15 10 15 6 0 10 118 10 334 0 288 -2 335 -15 340
-8 3 -15 12 -15 21 0 13 -22 15 -155 15 -131 0 -155 -2 -155 -15z"/>
<path d="M1980 2535 c0 -10 -10 -15 -30 -15 -19 0 -30 -5 -30 -14 0 -7 -13
-16 -30 -19 -18 -4 -30 -13 -30 -22 0 -10 -10 -15 -30 -15 l-30 0 0 -230 0
-230 115 0 115 0 0 280 0 280 -25 0 c-16 0 -25 -6 -25 -15z"/>
<path d="M740 2325 c0 -30 4 -55 10 -55 5 0 12 -16 16 -35 3 -19 10 -35 15
-35 5 0 9 -7 9 -15 0 -9 7 -18 15 -21 8 -4 15 -12 15 -20 0 -8 7 -14 15 -14 8
0 15 -7 15 -15 0 -9 7 -18 15 -21 8 -4 15 -12 15 -20 0 -10 12 -14 40 -14 29
0 40 -4 40 -15 0 -12 16 -15 80 -15 64 0 80 3 80 15 0 9 9 15 21 15 12 0 23 8
26 20 3 11 12 20 19 20 8 0 14 7 14 15 0 8 7 15 15 15 8 0 15 7 15 15 0 8 11
17 25 21 14 3 25 12 25 20 0 10 -15 14 -54 14 -64 0 -86 7 -86 26 0 8 -7 14
-15 14 -8 0 -15 7 -15 15 0 8 -7 15 -15 15 -8 0 -15 9 -15 20 0 11 -7 20 -15
20 -10 0 -15 11 -15 35 l0 35 -155 0 -155 0 0 -55z"/>
<path d="M1660 2325 c0 -10 -10 -15 -30 -15 -23 0 -30 -4 -30 -20 0 -15 -7
-20 -25 -20 -16 0 -25 -6 -25 -15 0 -8 -9 -15 -20 -15 -13 0 -20 -7 -20 -20 0
-15 -7 -20 -25 -20 -16 0 -25 -6 -25 -15 0 -8 -7 -15 -15 -15 -8 0 -15 -7 -15
-15 0 -9 -7 -18 -15 -21 -8 -4 -15 -12 -15 -19 0 -7 -13 -16 -30 -20 -16 -4
-30 -13 -30 -21 0 -8 -7 -14 -15 -14 -8 0 -15 -9 -15 -20 0 -11 -4 -20 -10
-20 -5 0 -10 -7 -10 -15 0 -12 14 -15 65 -15 48 0 65 3 65 14 0 14 42 26 91
26 19 0 29 5 29 15 0 8 7 15 15 15 8 0 15 6 15 14 0 8 14 17 30 21 26 6 30 11
30 41 0 24 5 34 15 34 10 0 15 10 15 29 0 16 6 31 15 35 11 4 15 20 15 56 0
38 -4 50 -15 50 -8 0 -15 -7 -15 -15z"/>
<path d="M2580 1620 l0 -160 -60 0 c-47 0 -60 -3 -60 -15 0 -8 -4 -15 -10 -15
-5 0 -10 -18 -10 -40 0 -29 4 -40 15 -40 8 0 15 -7 15 -15 0 -12 13 -15 55
-15 l55 0 0 -154 c0 -172 -3 -166 76 -166 l44 0 0 390 0 390 -60 0 -60 0 0
-160z"/>
<path d="M3070 1761 c0 -11 -4 -21 -10 -23 -5 -1 -13 -42 -16 -90 -4 -49 -10
-88 -15 -88 -4 0 -10 -13 -14 -29 -3 -16 -13 -32 -21 -35 -8 -3 -14 -12 -14
-21 0 -8 -4 -15 -10 -15 -5 0 -10 -7 -10 -15 0 -9 -7 -18 -15 -21 -8 -4 -15
-12 -15 -20 0 -8 -7 -14 -15 -14 -8 0 -15 -6 -15 -14 0 -8 -13 -17 -30 -21
-26 -6 -30 -11 -30 -41 0 -24 5 -34 15 -34 8 0 15 -7 15 -15 0 -11 11 -15 40
-15 30 0 40 4 40 16 0 9 9 18 20 21 11 3 20 12 20 19 0 8 10 14 25 14 18 0 25
5 25 20 0 11 7 20 15 20 10 0 15 10 15 29 0 22 6 30 24 35 35 9 54 -2 61 -34
4 -19 14 -30 31 -34 13 -4 24 -13 24 -21 0 -8 7 -15 15 -15 8 0 15 -6 15 -14
0 -18 50 -30 90 -21 17 4 30 13 30 21 0 8 5 14 10 14 6 0 10 7 10 15 0 8 -4
15 -10 15 -5 0 -10 9 -10 20 0 16 -7 20 -30 20 -20 0 -30 5 -30 15 0 8 -7 15
-15 15 -8 0 -15 9 -15 20 0 11 -7 20 -15 20 -8 0 -15 6 -15 14 0 8 -7 16 -15
20 -8 3 -15 12 -15 21 0 8 -7 15 -15 15 -8 0 -15 9 -15 20 0 11 -4 20 -10 20
-5 0 -10 23 -10 50 0 28 5 50 10 50 6 0 10 16 10 35 0 19 -4 35 -9 35 -5 0
-11 9 -14 20 -4 16 -14 20 -46 20 -34 0 -41 -3 -41 -19z"/>
<path d="M3440 1690 l0 -90 -79 0 c-86 0 -91 -4 -91 -71 0 -31 19 -39 98 -39
39 0 52 -4 52 -15 0 -8 5 -15 10 -15 6 0 10 -42 10 -105 l0 -105 60 0 60 0 0
265 0 265 -60 0 -60 0 0 -90z"/>
<path d="M480 1725 c0 -10 -10 -15 -30 -15 -19 0 -30 -5 -30 -14 0 -8 -13 -17
-30 -21 -25 -5 -30 -12 -30 -35 0 -16 -7 -30 -15 -34 -21 -8 -22 -216 -1 -216
8 0 17 -15 20 -35 4 -19 11 -35 16 -35 6 0 10 -7 10 -15 0 -9 10 -15 26 -15
17 0 28 -6 31 -20 4 -14 14 -20 34 -20 19 0 29 -5 29 -15 0 -10 14 -17 40 -21
24 -4 40 -12 40 -20 0 -8 7 -14 15 -14 8 0 15 -9 15 -20 0 -11 7 -20 15 -20
12 0 15 -16 15 -84 l0 -84 -30 -7 c-16 -4 -30 -13 -30 -21 0 -11 -16 -14 -70
-14 -63 0 -70 2 -70 20 0 16 -7 20 -30 20 -20 0 -30 5 -30 15 0 8 -7 15 -15
15 -8 0 -15 9 -15 20 0 15 -7 20 -25 20 -24 0 -25 -2 -25 -70 0 -38 4 -70 9
-70 5 0 11 -9 14 -20 3 -14 14 -20 31 -20 16 0 26 -6 26 -14 0 -20 98 -30 205
-21 62 5 85 11 85 21 0 8 7 14 15 14 8 0 15 6 15 14 0 8 7 16 15 20 8 3 15 12
15 21 0 8 4 15 9 15 5 0 12 18 16 40 4 22 11 40 16 40 5 0 9 29 9 65 0 36 -4
65 -9 65 -5 0 -12 16 -15 35 -4 19 -11 35 -16 35 -6 0 -10 9 -10 20 0 11 -7
20 -15 20 -8 0 -15 6 -15 14 0 8 -13 17 -30 21 -16 4 -30 13 -30 21 0 8 -10
14 -25 14 -15 0 -25 6 -25 14 0 7 -13 16 -30 20 -18 3 -30 12 -30 21 0 10 -10
15 -30 15 -23 0 -30 4 -30 20 0 11 -7 20 -15 20 -12 0 -15 14 -15 70 0 56 3
70 15 70 8 0 15 7 15 15 0 12 16 15 85 15 69 0 85 -3 85 -15 0 -9 10 -15 26
-15 17 0 28 -6 31 -20 3 -11 12 -20 19 -20 11 0 14 17 14 70 0 53 -3 70 -14
70 -7 0 -16 9 -19 20 -4 16 -14 20 -46 20 -30 0 -41 4 -41 15 0 12 -14 15 -70
15 -56 0 -70 -3 -70 -15z"/>
<path d="M2066 1718 c-3 -13 -6 -44 -6 -70 l0 -48 130 0 130 0 0 -50 c0 -38
-4 -50 -15 -50 -10 0 -15 -10 -15 -34 0 -21 -6 -36 -15 -40 -8 -3 -15 -12 -15
-21 0 -8 -4 -15 -10 -15 -5 0 -10 -7 -10 -15 0 -9 -7 -18 -15 -21 -8 -4 -15
-12 -15 -20 0 -8 -7 -14 -15 -14 -8 0 -15 -6 -15 -14 0 -8 -13 -17 -30 -21
-16 -4 -30 -13 -30 -21 0 -9 -11 -14 -30 -14 -20 0 -30 -5 -30 -15 0 -9 -13
-18 -31 -22 -27 -5 -30 -9 -24 -32 4 -14 11 -27 16 -29 5 -2 9 -12 9 -23 0
-16 7 -19 45 -19 32 0 45 4 45 14 0 8 14 17 30 21 17 4 30 13 30 21 0 8 10 14
25 14 16 0 25 6 25 15 0 8 7 15 15 15 8 0 15 9 15 20 0 11 7 20 15 20 8 0 15
7 15 15 0 8 7 15 15 15 8 0 15 9 15 20 0 11 7 20 15 20 8 0 15 9 15 20 0 11 4
20 10 20 5 0 12 16 16 35 3 19 10 35 14 35 5 0 12 15 15 33 4 17 12 35 18 39
6 3 13 34 15 67 2 34 8 61 13 61 5 0 9 18 9 40 0 22 -4 40 -10 40 -5 0 -10 7
-10 15 0 13 -27 15 -184 15 -182 0 -184 0 -190 -22z"/>
<path d="M792 1658 l3 -53 113 -3 112 -3 0 -362 c0 -199 3 -372 6 -384 6 -20
13 -23 60 -23 l54 0 0 385 0 385 115 0 115 0 0 41 c0 33 3 40 16 35 9 -3 20
-6 24 -6 5 0 12 -16 16 -35 3 -19 10 -35 15 -35 4 0 11 -16 15 -35 3 -19 10
-35 15 -35 5 0 9 -7 9 -15 0 -9 6 -18 14 -21 8 -3 18 -19 21 -35 4 -16 10 -29
15 -29 4 0 11 -16 14 -35 4 -19 11 -35 16 -35 6 0 10 -9 10 -20 0 -11 7 -20
15 -20 11 0 15 -12 15 -50 0 -38 -4 -50 -15 -50 -8 0 -15 -9 -15 -20 0 -11 -4
-20 -10 -20 -5 0 -12 -15 -16 -34 -3 -19 -12 -37 -20 -40 -8 -3 -14 -12 -14
-21 0 -8 -4 -15 -10 -15 -5 0 -12 -16 -16 -35 -3 -19 -10 -35 -15 -35 -5 0 -9
-7 -9 -15 0 -9 -7 -18 -15 -21 -9 -4 -15 -19 -15 -35 0 -19 -5 -29 -15 -29
-10 0 -15 -11 -15 -35 l0 -35 55 0 c42 0 55 3 55 15 0 8 7 15 15 15 10 0 15
11 15 35 0 24 5 35 15 35 10 0 15 11 15 35 0 24 5 35 15 35 8 0 15 9 15 20 0
11 7 20 15 20 10 0 15 11 15 35 0 24 5 35 15 35 8 0 15 7 15 15 0 8 7 15 15
15 10 0 15 -10 15 -29 0 -16 6 -31 15 -35 8 -3 15 -12 15 -21 0 -8 4 -15 9
-15 5 0 12 -16 15 -35 4 -19 11 -35 15 -35 5 0 12 -16 15 -35 4 -19 11 -35 16
-35 6 0 10 -9 10 -20 0 -11 7 -20 15 -20 8 0 15 -7 15 -15 0 -12 13 -15 60
-15 47 0 60 3 60 15 0 8 -7 15 -15 15 -10 0 -15 11 -15 35 0 24 -5 35 -15 35
-10 0 -15 11 -15 35 0 24 -5 35 -15 35 -8 0 -15 9 -15 20 0 11 -7 20 -15 20
-10 0 -15 11 -15 35 0 24 -5 35 -15 35 -10 0 -15 10 -15 29 0 16 -6 31 -15 35
-8 3 -15 12 -15 20 0 8 -5 16 -10 18 -6 2 -13 27 -17 56 -5 44 -3 52 11 52 12
0 16 9 16 35 0 23 5 35 14 35 8 0 17 15 20 35 4 19 11 35 16 35 6 0 10 9 10
20 0 11 7 20 15 20 10 0 15 11 15 35 0 24 5 35 15 35 8 0 15 9 15 20 0 11 4
20 9 20 5 0 12 14 16 30 4 17 11 30 16 30 5 0 9 9 9 20 0 18 -7 20 -65 20
l-64 0 -7 -35 c-3 -19 -10 -35 -15 -35 -4 0 -11 -16 -15 -35 -3 -19 -10 -35
-15 -35 -5 0 -9 -7 -9 -15 0 -9 -6 -18 -14 -21 -8 -3 -17 -21 -20 -40 -4 -19
-11 -34 -15 -34 -5 0 -12 -16 -15 -35 -7 -37 -26 -48 -26 -15 0 11 -7 20 -15
20 -10 0 -15 11 -15 35 0 24 -5 35 -15 35 -10 0 -15 11 -15 35 0 24 -5 35 -15
35 -8 0 -15 7 -15 16 0 8 -7 22 -15 30 -8 9 -15 24 -15 35 0 10 -4 19 -9 19
-5 0 -11 9 -14 20 -5 20 -14 20 -367 20 l-361 0 3 -52z"/>
<path d="M2990 1145 l0 -65 209 0 c215 0 241 -3 241 -25 0 -21 -45 -26 -234
-25 -100 1 -189 1 -198 1 -16 -1 -18 -15 -18 -156 l0 -155 285 0 285 0 0 55 0
55 -215 0 c-184 0 -215 2 -215 15 0 8 -7 15 -15 15 -20 0 -19 26 1 34 9 3 105
6 215 6 170 0 199 2 199 15 0 8 7 15 15 15 13 0 15 21 15 125 0 104 -2 125
-15 125 -8 0 -15 7 -15 15 0 13 -37 15 -270 15 l-270 0 0 -65z"/>
<path d="M2150 895 l0 -175 284 0 284 0 6 35 c4 19 4 51 0 70 l-6 35 -223 0
-222 0 -7 31 c-3 17 -6 65 -6 105 l0 74 -55 0 -55 0 0 -175z"/>
</g>
</svg>
